<?xml version="1.0" standalone="no"?>
<!DOCTYPE svg PUBLIC "-//W3C//DTD SVG 20010904//EN"
 "http://www.w3.org/TR/2001/REC-SVG-20010904/DTD/svg10.dtd">
<svg version="1.0" xmlns="http://www.w3.org/2000/svg"
 width="512.000000pt" height="512.000000pt" viewBox="0 0 512.000000 512.000000"
 preserveAspectRatio="xMidYMid meet">

<g transform="translate(0.000000,512.000000) scale(0.100000,-0.100000)"
fill="#a83b41" stroke="none">
<path d="M1287 4249 c-306 -31 -573 -210 -782 -524 -258 -387 -424 -868 -487
-1410 -19 -166 -16 -608 5 -780 36 -288 86 -438 180 -542 115 -125 314 -162
471 -88 138 65 390 283 621 536 244 267 251 275 318 305 l62 29 885 0 885 0
65 -31 c53 -25 82 -49 155 -129 402 -441 611 -630 792 -713 63 -29 82 -33 155
-33 272 0 412 170 472 571 51 348 46 741 -15 1105 -105 632 -414 1251 -751
1508 -184 140 -357 199 -583 199 -252 0 -500 -82 -759 -251 -42 -27 -106 -60
-144 -73 -62 -21 -83 -23 -272 -23 -189 0 -210 2 -272 23 -38 13 -101 45 -140
71 -224 146 -456 234 -648 247 -47 3 -96 6 -110 8 -14 1 -60 -1 -103 -5z
m2408 -604 c122 -71 171 -236 107 -362 -45 -87 -154 -153 -253 -153 -98 0
-202 71 -247 169 -21 45 -24 64 -20 125 5 77 21 116 70 171 80 92 234 115 343
50z m-2145 -173 l55 -18 3 -172 2 -172 165 0 165 0 27 -52 c37 -71 39 -167 4
-250 l-23 -58 -179 0 -179 0 0 -171 0 -170 -47 -22 c-71 -33 -201 -31 -260 2
l-43 25 0 168 0 168 -168 0 -168 0 -16 33 c-42 88 -43 197 -4 291 l15 36 175
0 176 0 0 175 c0 96 1 175 3 175 1 0 20 7 42 15 55 20 187 18 255 -3z m2839
-239 c155 -96 177 -308 45 -436 -46 -44 -127 -77 -189 -77 -97 0 -204 68 -250
160 -26 50 -31 147 -11 206 55 165 257 238 405 147z m-713 -341 c92 -47 144
-128 152 -235 4 -61 2 -73 -28 -133 -54 -110 -148 -162 -275 -152 -145 12
-246 127 -244 277 1 109 53 191 150 240 58 30 71 32 134 28 45 -2 85 -12 111
-25z"/>
</g>
</svg>
